<svg width="110" height="110" xmlns="http://www.w3.org/2000/svg">

 <g>
  <title>background</title>
  <rect fill="none" id="canvas_background" height="402" width="582" y="-1" x="-1"/>
 </g>
 <g>
  <title>Layer 1</title>
  <path id="svg_3" fill="#e5e5e5" d="m87,85c0,1.105 -0.895,2 -2,2l-44,0c-1.105,0 -2,-0.895 -2,-2l0,-44c0,-1.105 0.895,-2 2,-2l44,0c1.105,0 2,0.895 2,2l0,44z"/>
  <rect id="svg_4" fill="#40C9E7" y="43" x="43" width="40" height="32"/>
  <path id="svg_5" fill="#daede2" d="m71,69c0,1.105 -0.895,2 -2,2l-44,0c-1.105,0 -2,-0.895 -2,-2l0,-44c0,-1.105 0.895,-2 2,-2l44,0c1.105,0 2,0.895 2,2l0,44z"/>
  <rect id="svg_6" fill="#40C9E7" y="27" x="27" width="40" height="32"/>
  <polygon id="svg_8" fill="#6FDAF1" points="43.979,45.021 62,27 26.962,27 26.962,53.4 35.626,43.003 35.623,43 38.957,39      38.959,39.003 38.962,39    "/>
  <polygon id="svg_9" fill="#84462D" points="59,31 38,59 67,59 67,42.2   "/>
  <polygon id="svg_10" fill="#F0F1F1" points="58.98,38.979 61.907,43.077 64.833,39.174 58.98,30.979 53.126,38.784 56.053,43.077   "/>
  <polygon id="svg_11" fill="#D4A263" points="39,39 27,53.4 27,59 55.667,59   "/>
  <path id="svg_12" fill="#FFFFFF" d="m49.005,33.037c0,1.105 -0.896,2.001 -2.001,2.001l-12.008,0c-1.105,0 -2.001,-0.896 -2.001,-2.001c0,-1.241 1.166,-2.543 3.336,-1.769c1.1,-1.36 2.79,-2.23 4.67,-2.23s3.57,0.87 4.67,2.23c2.179,-0.778 3.334,0.539 3.334,1.769z"/>
  <polygon id="svg_13" fill="#EDBC7C" points="44.017,45.021 30.038,59 27,59 27,53.4 35.664,43.003 38.995,47 42.328,43   "/>
  <polygon id="svg_14" fill="#FFFFFF" points="38.995,47.038 42.328,43.038 38.995,39.038 35.661,43.038   "/>
 </g>
</svg>