<svg width="30.000000000000004" height="30.000000000000004" xmlns="http://www.w3.org/2000/svg">

  <path fill="#15cd72" id="svg_2" d="m5.41998,9.24002c0,-2.28003 1.84998,-4.13 4.13001,-4.13c2.26996,0 4.11999,1.84997 4.11999,4.13c0,2.27997 -1.85003,4.13001 -4.11999,4.13001c-2.28003,0 -4.13001,-1.85004 -4.13001,-4.13001z" class="st0"/>
  <path fill="#15cd72" id="svg_3" d="m13.17999,23.88998c0,0.35004 0.07001,0.69001 0.18,1l-10.35999,0c-0.55005,0 -1,-0.43994 -1,-1l0,-2.06994c0,-4.15003 3.38995,-7.54004 7.53998,-7.54004c2.21997,0 4.21997,0.98004 5.59997,2.51001c-1.21997,1.46002 -1.95996,3.34003 -1.95996,5.39001l0,1.70996z" class="st0"/>
  <path fill="#d8d2d2" id="svg_4" d="m21.58997,15.17001c1.97998,0 3.59002,-1.60998 3.59002,-3.59002c0,-1.97998 -1.61004,-3.58997 -3.59002,-3.58997c-1.96997,0 -3.58997,1.60999 -3.58997,3.58997c0,1.98004 1.62,3.59002 3.58997,3.59002z" class="st1"/>
  <path fill="#d8d2d2" id="svg_5" d="m21.58997,15.76999c-3.53998,0 -6.40998,2.86999 -6.40998,6.41003l0,1.70996c0,0.56006 0.44001,1 1,1l10.82001,0c0.56,0 1,-0.43994 1,-1l0,-1.70996c0,-3.54004 -2.87,-6.41003 -6.41003,-6.41003z" class="st1"/>

</svg>